<?xml version="1.0" encoding="iso-8859-1"?>
<!-- Generator: Adobe Illustrator 18.0.0, SVG Export Plug-In . SVG Version: 6.00 Build 0)  -->
<!DOCTYPE svg PUBLIC "-//W3C//DTD SVG 1.1//EN" "http://www.w3.org/Graphics/SVG/1.1/DTD/svg11.dtd">
<svg version="1.1" id="Capa_1" xmlns="http://www.w3.org/2000/svg" xmlns:xlink="http://www.w3.org/1999/xlink" x="0px" y="0px"
	 viewBox="0 0 58 58" style="enable-background:new 0 0 58 58;" xml:space="preserve">
<g>
	<path d="M50.95,12.187L39.313,0.55C38.964,0.201,38.48,0,37.985,0H8.963C7.777,0,6.5,0.916,6.5,2.926V39h0.633l16.736-14.245
		c0.397-0.337,0.986-0.314,1.355,0.055l4.743,4.743l9.795-10.727c0.181-0.198,0.434-0.315,0.703-0.325
		c0.282-0.009,0.53,0.09,0.725,0.274l10,9.5l0.311,0.297V13.978C51.5,13.212,51.408,12.645,50.95,12.187z M16.5,23.638
		c-3.071,0-5.569-2.498-5.569-5.569S13.429,12.5,16.5,12.5s5.569,2.498,5.569,5.569S19.571,23.638,16.5,23.638z M48.109,14H37.5
		V3.391c0-0.458,0.553-0.687,0.877-0.363l10.095,10.095C48.796,13.447,48.567,14,48.109,14z"/>
	<path d="M31.383,30.969l4.807,4.807c0.391,0.391,0.391,1.023,0,1.414s-1.023,0.391-1.414,0L24.462,26.876L10.218,39H51.5v-7.636
		L40.551,20.928L31.383,30.969z"/>
	<path d="M20.823,49.058c0.196-0.068,0.376-0.18,0.54-0.335s0.296-0.371,0.396-0.649c0.1-0.278,0.15-0.622,0.15-1.032
		c0-0.164-0.023-0.354-0.068-0.567c-0.046-0.214-0.139-0.419-0.28-0.615c-0.142-0.196-0.34-0.36-0.595-0.492
		c-0.255-0.132-0.593-0.198-1.012-0.198h-1.23v3.992h1.504C20.429,49.16,20.627,49.126,20.823,49.058z"/>
	<path d="M16.5,14.5c-1.968,0-3.569,1.601-3.569,3.569s1.601,3.569,3.569,3.569s3.569-1.601,3.569-3.569S18.468,14.5,16.5,14.5z"/>
	<path d="M7.85,41H6.5v1.08V43v13c0,1.009,1.22,2,2.463,2h40.074c1.243,0,2.463-0.991,2.463-2V41h-43H7.85z M35.302,46.679
		c0.214-0.643,0.51-1.178,0.889-1.606c0.378-0.429,0.822-0.754,1.333-0.978c0.51-0.224,1.062-0.335,1.654-0.335
		c0.547,0,1.057,0.091,1.531,0.273c0.474,0.183,0.897,0.456,1.271,0.82l-1.135,1.012c-0.219-0.265-0.47-0.456-0.752-0.574
		c-0.283-0.118-0.574-0.178-0.875-0.178c-0.337,0-0.659,0.063-0.964,0.191c-0.306,0.128-0.579,0.344-0.82,0.649
		c-0.242,0.306-0.431,0.699-0.567,1.183s-0.21,1.075-0.219,1.777c0.009,0.684,0.08,1.276,0.212,1.777
		c0.132,0.501,0.314,0.911,0.547,1.23s0.497,0.556,0.793,0.711c0.296,0.155,0.608,0.232,0.937,0.232c0.1,0,0.234-0.007,0.403-0.021
		c0.168-0.014,0.337-0.036,0.506-0.068c0.168-0.032,0.33-0.075,0.485-0.13c0.155-0.055,0.269-0.132,0.342-0.232v-2.488h-1.709
		v-1.121H42.5v3.896c-0.21,0.265-0.444,0.48-0.704,0.649s-0.533,0.308-0.82,0.417S40.392,53.954,40.087,54
		c-0.306,0.046-0.608,0.068-0.909,0.068c-0.602,0-1.155-0.109-1.661-0.328s-0.948-0.542-1.326-0.971
		c-0.378-0.429-0.675-0.966-0.889-1.613c-0.214-0.647-0.321-1.395-0.321-2.242S35.087,47.321,35.302,46.679z M25.369,43.924h1.668
		l3.951,6.945v-6.945h1.668V54h-1.668l-3.951-6.945V54h-1.668V43.924z M17.084,43.924h2.898c0.428,0,0.852,0.068,1.271,0.205
		c0.419,0.137,0.795,0.342,1.128,0.615c0.333,0.273,0.602,0.604,0.807,0.991s0.308,0.822,0.308,1.306
		c0,0.511-0.087,0.973-0.26,1.388c-0.173,0.415-0.415,0.764-0.725,1.046c-0.31,0.282-0.684,0.501-1.121,0.656
		s-0.921,0.232-1.449,0.232h-1.217V54h-1.641V43.924z"/>
</g>
<g>
</g>
<g>
</g>
<g>
</g>
<g>
</g>
<g>
</g>
<g>
</g>
<g>
</g>
<g>
</g>
<g>
</g>
<g>
</g>
<g>
</g>
<g>
</g>
<g>
</g>
<g>
</g>
<g>
</g>
</svg>
