<?xml version="1.0" encoding="iso-8859-1"?>
<!-- Generator: Adobe Illustrator 18.0.0, SVG Export Plug-In . SVG Version: 6.00 Build 0)  -->
<!DOCTYPE svg PUBLIC "-//W3C//DTD SVG 1.1//EN" "http://www.w3.org/Graphics/SVG/1.1/DTD/svg11.dtd">
<svg version="1.1" id="Capa_1" xmlns="http://www.w3.org/2000/svg" xmlns:xlink="http://www.w3.org/1999/xlink" x="0px" y="0px"
	 viewBox="0 0 58 58" style="enable-background:new 0 0 58 58;" xml:space="preserve">
<g>
	<polygon points="20.191,50.801 23.199,50.801 21.709,46.453 	"/>
	<path d="M51.5,39V13.978c0-0.766-0.092-1.333-0.55-1.792L39.313,0.55C38.964,0.201,38.48,0,37.985,0H8.963
		C7.777,0,6.5,0.916,6.5,2.926V39H51.5z M37.5,3.391c0-0.458,0.553-0.687,0.877-0.363l10.095,10.095
		C48.796,13.447,48.567,14,48.109,14H37.5V3.391z M23.5,15c0-0.365,0.199-0.701,0.519-0.877c0.321-0.175,0.71-0.162,1.019,0.033
		l11,7C36.325,21.34,36.5,21.658,36.5,22s-0.175,0.66-0.463,0.844l-11,7C24.874,29.947,24.687,30,24.5,30
		c-0.166,0-0.331-0.041-0.481-0.123C23.699,29.701,23.5,29.365,23.5,29V15z"/>
	<path d="M6.5,41v15c0,1.009,1.22,2,2.463,2h40.074c1.243,0,2.463-0.991,2.463-2V41H6.5z M24.32,54l-0.725-2.092h-3.787L19.07,54
		h-1.709l3.527-10.063h1.627L26.016,54H24.32z M32.961,54.055h-2.133l-3.131-10.131h1.873l2.338,8.695l2.475-8.695h1.859
		L32.961,54.055z M39.988,54H38.32V43.924h1.668V54z"/>
</g>
<g>
</g>
<g>
</g>
<g>
</g>
<g>
</g>
<g>
</g>
<g>
</g>
<g>
</g>
<g>
</g>
<g>
</g>
<g>
</g>
<g>
</g>
<g>
</g>
<g>
</g>
<g>
</g>
<g>
</g>
</svg>
